<svg xmlns="http://www.w3.org/2000/svg" xmlns:xlink="http://www.w3.org/1999/xlink" viewBox="0 0 1700.79 1133.86"><defs><style>.cls-1{isolation:isolate;}.cls-2{fill:url(#linear-gradient);}.cls-3{fill:#0070a6;}.cls-4{fill:#155a88;}.cls-5{fill:#fff;}.cls-6{fill:#ededed;mix-blend-mode:multiply;}.cls-7{fill:#056798;}.cls-8{fill:#8cd3f6;}</style><linearGradient id="linear-gradient" x1="2287.06" y1="41.85" x2="616.97" y2="1041.86" gradientTransform="translate(-555.05)" gradientUnits="userSpaceOnUse"><stop offset="0" stop-color="#6cc5e4"/><stop offset="1" stop-color="#00acd3"/></linearGradient></defs><title>landing-hero-2</title><g class="cls-1"><g id="Layer_1" data-name="Layer 1"><rect class="cls-2" x="5.78" y="-0.65" width="1700.79" height="1133.86" transform="translate(1706.57 1133.21) rotate(180)"/><path class="cls-3" d="M645.41,999.45,477.58,805.24,372.31,870.59l246,144.24a4.59,4.59,0,0,0,4,.31l21.32-8.39A4.61,4.61,0,0,0,645.41,999.45Z" transform="translate(-5.78 0.65)"/><path class="cls-4" d="M643.12,1006.94l.49-.19a4.61,4.61,0,0,0,1.8-7.3L477.58,805.24,372.31,870.59l28.18,16.53C447,843.05,538.64,877.62,643.12,1006.94Z" transform="translate(-5.78 0.65)"/><path class="cls-3" d="M382.71,491.58l61.53,249.2L330.07,788.92l24.41-284.08a4.58,4.58,0,0,1,2.07-3.46l19.17-12.55A4.6,4.6,0,0,1,382.71,491.58Z" transform="translate(-5.78 0.65)"/><path class="cls-4" d="M375.27,489.12l.45-.29a4.6,4.6,0,0,1,7,2.75l61.53,249.2L330.07,788.92l2.79-32.54C395.7,743.9,420.45,649.11,375.27,489.12Z" transform="translate(-5.78 0.65)"/><path class="cls-5" d="M663,687.51c-127.42,82.27-305.63,199.9-350.49,220.37s-98.76,12.91-108.41-5.73,30.39-74.8,63.41-90.06S614.37,669,646.32,655.24,699.85,662.09,663,687.51Z" transform="translate(-5.78 0.65)"/><path class="cls-6" d="M413.21,774.92c138-61.19,233.89-107,268.4-108,4.45-14-12.85-21.33-35.29-11.64-32,13.8-345.79,141.59-378.8,156.85s-73,71.41-63.41,90.06a16.76,16.76,0,0,0,2.22,3.23C222.47,868,321.33,815.66,413.21,774.92Z" transform="translate(-5.78 0.65)"/><path class="cls-7" d="M714.31,767.67l-52.66-83.91-46.73,30,86.21,59.49a1.86,1.86,0,0,0,1.57.25l10.55-3A1.86,1.86,0,0,0,714.31,767.67Z" transform="translate(-5.78 0.65)"/><path class="cls-7" d="M610.91,567.75,649,659.21,597.49,680l1.26-104.73a1.89,1.89,0,0,1,.7-1.43L608,567A1.87,1.87,0,0,1,610.91,567.75Z" transform="translate(-5.78 0.65)"/><path class="cls-8" d="M238.08,845.84c-6.69,8.49-11.08,17.25-12.94,25.48L239.28,864A64.55,64.55,0,0,1,238.08,845.84Z" transform="translate(-5.78 0.65)"/><path class="cls-8" d="M240.79,869.74l-16.63,8.6a29.21,29.21,0,0,0,2.36,13.3l19.24-10A68.71,68.71,0,0,1,240.79,869.74Z" transform="translate(-5.78 0.65)"/><path class="cls-8" d="M271.52,910.49a76.3,76.3,0,0,1-11.94-10.12l-13.79,7.13C252.63,909.75,261.15,910.87,271.52,910.49Z" transform="translate(-5.78 0.65)"/><path class="cls-8" d="M255.53,895.94a82,82,0,0,1-6.85-9.25l-19.2,9.94a29.27,29.27,0,0,0,9.41,7.92Z" transform="translate(-5.78 0.65)"/><path class="cls-8" d="M394.59,855.34l-5.39-10.41-12.55,7.57,5.5,10.63Z" transform="translate(-5.78 0.65)"/><path class="cls-8" d="M410.29,845.43l-5.21-10.08-12.55,7.57,5.35,10.35Q404,849.43,410.29,845.43Z" transform="translate(-5.78 0.65)"/><path class="cls-8" d="M535.21,764.77l-3.13-6-12.55,7.58,3.38,6.52Z" transform="translate(-5.78 0.65)"/><path class="cls-8" d="M519.64,775l-3.43-6.65-12.55,7.57,3.67,7.11Z" transform="translate(-5.78 0.65)"/><path class="cls-8" d="M472.87,805.34l-4.29-8.3L456,804.61l4.5,8.7Z" transform="translate(-5.78 0.65)"/><path class="cls-8" d="M504.07,785.1l-3.74-7.22-12.55,7.57,4,7.66Z" transform="translate(-5.78 0.65)"/><path class="cls-8" d="M457.25,815.42l-4.55-8.8-12.55,7.57,4.75,9.17Z" transform="translate(-5.78 0.65)"/><path class="cls-8" d="M441.62,825.46l-4.79-9.26-12.55,7.57,5,9.61Z" transform="translate(-5.78 0.65)"/><path class="cls-8" d="M426,835.47l-5-9.7-12.55,7.58,5.18,10Z" transform="translate(-5.78 0.65)"/><path class="cls-8" d="M488.48,795.23l-4-7.77L471.91,795l4.23,8.19Q482.38,799.19,488.48,795.23Z" transform="translate(-5.78 0.65)"/><path class="cls-8" d="M550.77,754.58,548,749.15l-12.55,7.57,3.06,5.92Z" transform="translate(-5.78 0.65)"/><path class="cls-8" d="M347.18,884.5l-5.61-10.83L329,881.24l5.52,10.66C338.36,889.71,342.6,887.23,347.18,884.5Z" transform="translate(-5.78 0.65)"/><path class="cls-8" d="M320.24,899.68c3-1.47,6.64-3.46,10.92-5.86l-5.46-10.57-10.64,6.41Z" transform="translate(-5.78 0.65)"/><path class="cls-8" d="M363.05,874.92l-5.6-10.83-12.55,7.57,5.61,10.85Q356.45,879,363.05,874.92Z" transform="translate(-5.78 0.65)"/><path class="cls-8" d="M566.31,744.36l-2.47-4.79-12.55,7.57,2.74,5.3Z" transform="translate(-5.78 0.65)"/><path class="cls-8" d="M580.65,734.91l-2.28-4.11-11.21,6.76,2.41,4.66Z" transform="translate(-5.78 0.65)"/><path class="cls-8" d="M378.84,865.18l-5.52-10.67-12.54,7.57,5.58,10.81Q372.39,869.19,378.84,865.18Z" transform="translate(-5.78 0.65)"/><path class="cls-8" d="M355.32,779.43l5.39,10.41-13.44,5.87-5.49-10.62Q348.38,782.32,355.32,779.43Z" transform="translate(-5.78 0.65)"/><path class="cls-8" d="M372.48,772.34l5.22,10.08-13.43,5.87-5.36-10.35Z" transform="translate(-5.78 0.65)"/><path class="cls-8" d="M510.5,717l3.13,6-13.43,5.87-3.38-6.52Z" transform="translate(-5.78 0.65)"/><path class="cls-8" d="M493.2,723.82l3.44,6.65-13.43,5.86-3.68-7.1Z" transform="translate(-5.78 0.65)"/><path class="cls-8" d="M441.37,744.43l4.29,8.3-13.43,5.87-4.5-8.7Z" transform="translate(-5.78 0.65)"/><path class="cls-8" d="M475.91,730.67l3.73,7.22-13.43,5.86-4-7.65Z" transform="translate(-5.78 0.65)"/><path class="cls-8" d="M424.12,751.36l4.55,8.79L415.24,766l-4.74-9.17Q417.31,754.09,424.12,751.36Z" transform="translate(-5.78 0.65)"/><path class="cls-8" d="M406.89,758.31l4.79,9.27-13.43,5.86-5-9.61Z" transform="translate(-5.78 0.65)"/><path class="cls-8" d="M389.67,765.3l5,9.7-13.43,5.86-5.18-10Z" transform="translate(-5.78 0.65)"/><path class="cls-8" d="M458.63,737.54l4,7.77-13.43,5.87L445,743Z" transform="translate(-5.78 0.65)"/><path class="cls-8" d="M527.81,710.19l2.81,5.43-13.43,5.87-3.06-5.92Z" transform="translate(-5.78 0.65)"/><path class="cls-8" d="M304.13,801.27l5.6,10.84L296.3,818l-5.51-10.66C294.78,805.45,299.25,803.43,304.13,801.27Z" transform="translate(-5.78 0.65)"/><path class="cls-8" d="M276.18,814.49c2.9-1.57,6.65-3.43,11.09-5.53l5.47,10.57-11.38,5Z" transform="translate(-5.78 0.65)"/><path class="cls-8" d="M321.12,793.86l5.6,10.83-13.43,5.86-5.61-10.85C311.9,797.84,316.4,795.89,321.12,793.86Z" transform="translate(-5.78 0.65)"/><path class="cls-8" d="M545.13,703.41l2.48,4.79-13.43,5.87-2.74-5.3Z" transform="translate(-5.78 0.65)"/><path class="cls-8" d="M561.13,697.17l2,4.24-12,5.24L548.76,702Z" transform="translate(-5.78 0.65)"/><path class="cls-8" d="M338.2,786.59l5.51,10.67-13.43,5.87-5.59-10.81Z" transform="translate(-5.78 0.65)"/><path class="cls-4" d="M707.93,772l5.32-1.53a1.86,1.86,0,0,0,1.06-2.78l-52.66-83.91-46.73,30L625,720.67C649.16,699,689.55,721,707.93,772Z" transform="translate(-5.78 0.65)"/><path class="cls-4" d="M603.7,570.47,608,567a1.87,1.87,0,0,1,2.89.74l38,91.47L597.49,680l.15-12.2C629.33,660.62,634.66,614.92,603.7,570.47Z" transform="translate(-5.78 0.65)"/><path class="cls-5" d="M78.66,223.49a28.94,28.94,0,0,0,54.48,1.26,47.22,47.22,0,0,0,85.7-14.34,46.56,46.56,0,0,0-1.39-26.89A762.67,762.67,0,0,1,414,174.68a98.94,98.94,0,0,0-.82,44.32c9.67,46.31,51.64,79.66,98.94,78.57a99.07,99.07,0,0,0,41.61-10.16c0,.58.06,1.16.14,1.74a38.88,38.88,0,1,0,43.24-43.56,98.67,98.67,0,0,0,9.71-26.34c30,12.27,57.64,26.76,82.05,43.28a43.65,43.65,0,0,0,64.32,57.21c26.14,31.53,42.82,67.39,47.19,106.88a48.26,48.26,0,1,0-12.49,95.65c-1.21,25.84-34.17,75.05-84.74,122.91,142.67-47.41,249.67-61.4,296.49-44.64a44.1,44.1,0,1,0,72.48,16.66l.55.18a12.17,12.17,0,0,0,15.25-7,95.82,95.82,0,0,1,95.27-59.11c46.4,3.15,84.34,40,88.7,86.3a95.78,95.78,0,0,1-44.95,90.76,16.72,16.72,0,0,0-6.84,20.4l.11.29a45.32,45.32,0,0,0-25.55-7.84c-.66,0-1.29.07-1.94.1q-3.95.66-8,1a45.56,45.56,0,1,0,49.39,67.15c7.63,87.64-18.72,233.44-137.1,323.75h609.57V-.65H5.78v260.2A579.87,579.87,0,0,1,78.66,223.49ZM1231.61,975a6.57,6.57,0,1,1,6.56-6.56A6.57,6.57,0,0,1,1231.61,975Zm36.75-18.38a32.81,32.81,0,1,1,32.81-32.81A32.81,32.81,0,0,1,1268.36,956.62Zm46.37,107.76a8.82,8.82,0,1,1,8.82-8.82A8.82,8.82,0,0,1,1314.73,1064.38Zm70.55-274.85a17.64,17.64,0,1,1-17.64,17.64A17.63,17.63,0,0,1,1385.28,789.53Zm-69.67-67.84a45.94,45.94,0,1,1-45.94,45.94A45.93,45.93,0,0,1,1315.61,721.69ZM1059.67,558.94a14.44,14.44,0,1,1-14.44,14.44A14.44,14.44,0,0,1,1059.67,558.94ZM696.78,197a14.56,14.56,0,0,1,8.11,2.46,45.91,45.91,0,1,1,2,22.7A14.62,14.62,0,1,1,696.78,197Zm-53-72.48a10.36,10.36,0,1,1-10.35,10.36A10.36,10.36,0,0,1,643.79,124.53Zm-446-60.93A54.43,54.43,0,1,1,143.41,118,54.43,54.43,0,0,1,197.83,63.6Zm-89.19,74.08a9.07,9.07,0,1,1-9.08,9.07A9.08,9.08,0,0,1,108.64,137.68Z" transform="translate(-5.78 0.65)"/><circle class="cls-5" cx="1093.87" cy="990.05" r="51.64" transform="translate(-385.46 1064.11) rotate(-45)"/><path class="cls-5" d="M1033.35,1091a82.33,82.33,0,1,1,153.05,42.21H1045A82.07,82.07,0,0,1,1033.35,1091Z" transform="translate(-5.78 0.65)"/><path class="cls-5" d="M1174.08,968.82a15.15,15.15,0,1,0,15.15-15.15A15.15,15.15,0,0,0,1174.08,968.82Z" transform="translate(-5.78 0.65)"/><path class="cls-5" d="M1164.25,835.37a7.6,7.6,0,1,0,7.59,7.6A7.59,7.59,0,0,0,1164.25,835.37Z" transform="translate(-5.78 0.65)"/><path class="cls-5" d="M956.16,634.88a9.11,9.11,0,1,0,9.11,9.11A9.11,9.11,0,0,0,956.16,634.88Z" transform="translate(-5.78 0.65)"/><path class="cls-5" d="M1004.77,727.53a7.6,7.6,0,1,0,7.59,7.59A7.59,7.59,0,0,0,1004.77,727.53Z" transform="translate(-5.78 0.65)"/><circle class="cls-5" cx="856.21" cy="626.41" r="16.71"/><path class="cls-5" d="M762.65,391.44a13.8,13.8,0,1,0-13.8,13.79A13.8,13.8,0,0,0,762.65,391.44Z" transform="translate(-5.78 0.65)"/><path class="cls-5" d="M679.87,331.65a6.9,6.9,0,1,0,6.9,6.9A6.9,6.9,0,0,0,679.87,331.65Z" transform="translate(-5.78 0.65)"/><path class="cls-5" d="M382.66,268.45a14.14,14.14,0,1,0,15.85,12.2A14.14,14.14,0,0,0,382.66,268.45Z" transform="translate(-5.78 0.65)"/><path class="cls-5" d="M126.09,250.66a28,28,0,1,0,31.35,24.13A28,28,0,0,0,126.09,250.66Z" transform="translate(-5.78 0.65)"/><path class="cls-5" d="M75.7,265.14a8.44,8.44,0,1,0,9.45,7.29A8.44,8.44,0,0,0,75.7,265.14Z" transform="translate(-5.78 0.65)"/><path class="cls-5" d="M1184.71,742.31q4-.34,8-1A45.47,45.47,0,0,0,1184.71,742.31Z" transform="translate(-5.78 0.65)"/><path class="cls-5" d="M1004.54,1033.14a9.24,9.24,0,1,1,9.24,9.24A9.24,9.24,0,0,1,1004.54,1033.14Z" transform="translate(-5.78 0.65)"/></g></g></svg>