<?xml version="1.0" encoding="utf-8"?>
<!-- Generator: Adobe Illustrator 24.0.1, SVG Export Plug-In . SVG Version: 6.00 Build 0)  -->
<svg version="1.1" id="Layer_1" xmlns="http://www.w3.org/2000/svg" xmlns:xlink="http://www.w3.org/1999/xlink" x="0px" y="0px"
	 viewBox="0 0 1700.79 1133.86" style="enable-background:new 0 0 1700.79 1133.86;" xml:space="preserve">
<style type="text/css">
	.st0{fill:url(#SVGID_1_);}
	.st1{fill:#0070A6;}
	.st2{fill:#155A88;}
	.st3{fill:#FFFFFF;}
	.st4{fill:#EDEDED;}
	.st5{fill:#056798;}
	.st6{fill:#8CD3F6;}
	.st7{display:none;}
	.st8{display:inline;}
	.st9{fill:#007FAA;}
	.st10{font-family:'Lobster1.3';}
	.st11{font-size:231.2554px;}
	.st12{fill:#3FA8D0;}
	.st13{font-family:'Raleway-Black';}
	.st14{font-size:63.2104px;}
	.st15{letter-spacing:6;}
	.st16{display:inline;fill:#3FA8D0;}
	.st17{display:inline;fill:#FFFFFF;}
	.st18{font-size:33.2084px;}
	.st19{letter-spacing:3;}
</style>
<g>
	<linearGradient id="SVGID_1_" gradientUnits="userSpaceOnUse" x1="1824.6349" y1="42.4966" x2="154.5453" y2="1042.5077">
		<stop  offset="0" style="stop-color:#6CC5E4"/>
		<stop  offset="1" style="stop-color:#00ACD3"/>
	</linearGradient>
	<rect x="98.4" class="st0" width="1700.79" height="1133.86"/>
	<g>
		<path class="st1" d="M1159.56,133.75l167.83,194.21l105.26-65.36l-245.96-144.24c-1.22-0.72-2.7-0.83-4.02-0.31l-21.32,8.4
			C1158.4,127.62,1157.48,131.35,1159.56,133.75z"/>
		<path class="st2" d="M1161.85,126.26l-0.49,0.19c-2.95,1.16-3.87,4.9-1.8,7.3l167.83,194.21l105.26-65.36l-28.18-16.52
			C1357.98,290.16,1266.32,255.59,1161.85,126.26z"/>
		<path class="st1" d="M1422.26,641.63l-61.52-249.2l114.17-48.15l-24.41,284.09c-0.12,1.41-0.88,2.68-2.07,3.46l-19.17,12.55
			C1426.59,646.12,1423.02,644.71,1422.26,641.63z"/>
		<path class="st2" d="M1429.69,644.09l-0.44,0.29c-2.66,1.74-6.23,0.33-6.99-2.75l-61.52-249.2l114.17-48.14l-2.8,32.54
			C1409.27,389.31,1384.52,484.09,1429.69,644.09z"/>
		<path class="st3" d="M1141.96,445.7c127.42-82.27,305.63-199.9,350.49-220.37c44.86-20.47,98.76-12.91,108.41,5.74
			c9.64,18.64-30.39,74.8-63.4,90.06c-33.01,15.26-346.85,143.05-378.8,156.85C1126.7,491.77,1105.12,471.12,1141.96,445.7z"/>
		<path class="st4" d="M1391.76,358.28c-138.03,61.19-233.89,106.99-268.4,108.05c-4.44,14.02,12.85,21.33,35.29,11.64
			c31.95-13.8,345.79-141.59,378.8-156.85c33.01-15.26,73.04-71.41,63.4-90.06c-0.58-1.12-1.33-2.2-2.22-3.24
			C1582.5,265.2,1483.64,317.55,1391.76,358.28z"/>
		<path class="st5" d="M1090.65,365.54l52.66,83.9l46.73-29.97l-86.21-59.49c-0.46-0.32-1.04-0.41-1.57-0.26l-10.55,3.03
			C1090.52,363.1,1089.99,364.49,1090.65,365.54z"/>
		<path class="st5" d="M1194.06,565.45l-38.05-91.46l51.47-20.82l-1.27,104.73c-0.01,0.56-0.26,1.08-0.7,1.43l-8.57,6.85
			C1195.98,566.97,1194.54,566.6,1194.06,565.45z"/>
		<g>
			<path class="st6" d="M1566.89,287.37c6.68-8.49,11.08-17.25,12.94-25.48l-14.14,7.32
				C1566.87,274.8,1567.37,280.86,1566.89,287.37z"/>
			<path class="st6" d="M1564.18,263.46l16.62-8.6c0.21-4.78-0.56-9.26-2.36-13.29l-19.24,9.95
				C1561.14,255.18,1562.85,259.16,1564.18,263.46z"/>
			<path class="st6" d="M1533.45,222.72c0,0,5.44,3.48,11.94,10.12l13.78-7.13C1552.33,223.46,1543.82,222.34,1533.45,222.72z"/>
			<path class="st6" d="M1549.44,237.26c2.32,2.72,4.66,5.81,6.85,9.25l19.2-9.93c-2.34-3.08-5.46-5.76-9.41-7.92L1549.44,237.26z"
				/>
		</g>
		<g>
			<path class="st6" d="M1410.38,277.86l5.39,10.41l12.55-7.57l-5.49-10.62C1418.77,272.61,1414.62,275.2,1410.38,277.86z"/>
			<path class="st6" d="M1394.68,287.77l5.21,10.08l12.55-7.57l-5.35-10.35C1403.01,282.5,1398.87,285.12,1394.68,287.77z"/>
			<path class="st6" d="M1269.76,368.43l3.13,6.05l12.55-7.57l-3.37-6.52C1277.79,363.18,1273.68,365.86,1269.76,368.43z"/>
			<path class="st6" d="M1285.32,358.26l3.44,6.65l12.55-7.57l-3.67-7.1C1293.43,352.97,1289.31,355.66,1285.32,358.26z"/>
			<path class="st6" d="M1332.09,327.87l4.29,8.3l12.55-7.57l-4.5-8.7C1340.3,322.57,1336.18,325.23,1332.09,327.87z"/>
			<path class="st6" d="M1300.9,348.11l3.73,7.22l12.55-7.57l-3.96-7.66C1309.04,342.81,1304.93,345.48,1300.9,348.11z"/>
			<path class="st6" d="M1347.71,317.79l4.55,8.8l12.55-7.57l-4.74-9.17C1355.95,312.49,1351.82,315.14,1347.71,317.79z"/>
			<path class="st6" d="M1363.35,307.75l4.79,9.27l12.55-7.57l-4.97-9.61C1371.61,302.45,1367.48,305.09,1363.35,307.75z"/>
			<path class="st6" d="M1379,297.74l5.02,9.7l12.55-7.57l-5.17-10C1387.3,292.45,1383.16,295.08,1379,297.74z"/>
			<path class="st6" d="M1316.49,337.98l4.02,7.77l12.55-7.57l-4.24-8.19C1324.67,332.67,1320.55,335.34,1316.49,337.98z"/>
			<path class="st6" d="M1254.2,378.63l2.81,5.43l12.55-7.57l-3.06-5.92C1262.13,373.43,1258.02,376.12,1254.2,378.63z"/>
			<path class="st6" d="M1457.79,248.7l5.61,10.84l12.55-7.57l-5.51-10.66C1466.6,243.5,1462.37,245.98,1457.79,248.7z"/>
			<path class="st6" d="M1484.73,233.53c-2.95,1.47-6.64,3.45-10.92,5.86l5.47,10.57l10.64-6.42
				C1489.91,243.54,1486.95,237.82,1484.73,233.53z"/>
			<path class="st6" d="M1441.92,258.29l5.6,10.83l12.55-7.57l-5.61-10.85C1450.49,253.07,1446.31,255.61,1441.92,258.29z"/>
			<path class="st6" d="M1238.65,388.85l2.48,4.79l12.55-7.57l-2.74-5.3C1246.32,383.8,1242.2,386.51,1238.65,388.85z"/>
			<path class="st6" d="M1224.32,398.3l2.28,4.11l11.21-6.76l-2.41-4.66C1228.35,395.63,1224.32,398.3,1224.32,398.3z"/>
			<path class="st6" d="M1426.12,268.03l5.52,10.67l12.55-7.57l-5.59-10.81C1434.59,262.79,1430.42,265.36,1426.12,268.03z"/>
		</g>
		<g>
			<path class="st6" d="M1449.65,353.78l-5.39-10.41l13.43-5.87l5.49,10.62C1458.78,349.97,1454.27,351.86,1449.65,353.78z"/>
			<path class="st6" d="M1432.48,360.87l-5.21-10.08l13.43-5.87l5.35,10.35C1441.6,357.11,1437.08,358.98,1432.48,360.87z"/>
			<path class="st6" d="M1294.47,416.21l-3.13-6.05l13.43-5.87l3.37,6.52C1303.4,412.69,1298.84,414.49,1294.47,416.21z"/>
			<path class="st6" d="M1311.77,409.39l-3.44-6.65l13.43-5.87l3.67,7.1C1320.76,405.83,1316.19,407.64,1311.77,409.39z"/>
			<path class="st6" d="M1363.6,388.77l-4.29-8.3l13.43-5.87l4.5,8.7C1372.67,385.14,1368.11,386.97,1363.6,388.77z"/>
			<path class="st6" d="M1329.06,402.54l-3.73-7.22l13.43-5.87l3.96,7.66C1338.08,398.95,1333.52,400.77,1329.06,402.54z"/>
			<path class="st6" d="M1380.85,381.85l-4.55-8.8l13.43-5.87l4.74,9.17C1389.93,378.19,1385.38,380.03,1380.85,381.85z"/>
			<path class="st6" d="M1398.08,374.9l-4.79-9.27l13.43-5.87l4.97,9.61C1407.18,371.21,1402.63,373.05,1398.08,374.9z"/>
			<path class="st6" d="M1415.29,367.91l-5.02-9.7l13.43-5.87l5.17,10C1424.4,364.19,1419.87,366.04,1415.29,367.91z"/>
			<path class="st6" d="M1346.33,395.67l-4.02-7.77l13.43-5.87l4.24,8.19C1355.38,392.06,1350.83,393.88,1346.33,395.67z"/>
			<path class="st6" d="M1277.16,423.02l-2.81-5.43l13.43-5.87l3.06,5.92C1285.98,419.55,1281.41,421.35,1277.16,423.02z"/>
			<path class="st6" d="M1500.84,331.94l-5.61-10.84l13.43-5.87l5.51,10.66C1510.18,327.75,1505.71,329.77,1500.84,331.94z"/>
			<path class="st6" d="M1528.79,318.72c-2.91,1.56-6.66,3.42-11.1,5.53l-5.47-10.57l11.38-4.97
				C1523.61,308.7,1526.57,314.43,1528.79,318.72z"/>
			<path class="st6" d="M1483.85,339.35l-5.6-10.83l13.43-5.87l5.61,10.85C1493.06,335.37,1488.57,337.32,1483.85,339.35z"/>
			<path class="st6" d="M1259.84,429.8l-2.48-4.79l13.43-5.87l2.74,5.3C1268.39,426.46,1263.79,428.26,1259.84,429.8z"/>
			<path class="st6" d="M1243.84,436.04l-2.04-4.23l11.99-5.24l2.41,4.66C1248.35,434.29,1243.84,436.04,1243.84,436.04z"/>
			<path class="st6" d="M1466.77,346.61l-5.52-10.67l13.43-5.87l5.59,10.81C1475.94,342.74,1471.43,344.65,1466.77,346.61z"/>
		</g>
		<path class="st2" d="M1097.03,361.23l-5.32,1.53c-1.19,0.34-1.72,1.73-1.06,2.78l52.66,83.9l46.73-29.97l-10.04-6.93
			C1155.8,434.24,1115.42,412.18,1097.03,361.23z"/>
		<path class="st2" d="M1201.26,562.74l-4.32,3.46c-0.97,0.77-2.41,0.41-2.89-0.74l-38.05-91.46l51.47-20.82l-0.15,12.2
			C1175.64,472.58,1170.31,518.29,1201.26,562.74z"/>
	</g>
	<path class="st3" d="M1726.31,909.72c-3.82-11.52-14.67-19.84-27.47-19.84c-12.33,0-22.83,7.72-27.01,18.57
		c-8.94-13.93-24.95-22.89-42.99-21.7c-20.42,1.35-37.88,16.15-42.72,36.04c-2.34,9.6-1.49,18.73,1.4,26.89
		c-65.58,11.65-132.5,14.26-196.53,8.84c3.5-14,4.02-29.05,0.82-44.33c-9.68-46.31-51.64-79.66-98.94-78.57
		c-15.09,0.35-29.13,4.02-41.61,10.16c-0.05-0.58-0.06-1.16-0.14-1.75c-2.96-22.75-25.02-38.34-47.96-32.72
		c-17.34,4.25-29.74,20.28-29.48,38.14c0.3,20.27,15.53,35.89,34.19,38.15c-4.43,8.2-7.73,17.05-9.71,26.34
		c-30.03-12.27-57.64-26.76-82.05-43.28c5.4-8.62,7.94-19.22,6.06-30.51c-3.01-18.12-17.49-32.67-35.61-35.69
		c-13.2-2.2-25.51,1.57-34.77,8.99c-26.15-31.52-42.82-67.38-47.19-106.87c2.55,0.42,5.14,0.69,7.81,0.69
		c26.67,0,48.29-21.62,48.29-48.29c0-25.09-19.13-45.69-43.6-48.05c1.21-25.84,34.17-75.05,84.73-122.91
		c-142.67,47.41-249.67,61.4-296.49,44.64c9.02-8.93,14.21-21.71,12.86-35.69c-1.98-20.45-18.36-37.11-38.78-39.38
		c-26.59-2.96-49.11,17.77-49.11,43.77c0,5.14,0.93,10.06,2.55,14.64c-0.18-0.06-0.36-0.13-0.55-0.19
		c-6.16-2.13-12.77,0.96-15.25,6.99c-15.14,36.74-52.44,62.01-95.27,59.1c-46.4-3.15-84.34-40-88.7-86.3
		c-3.6-38.22,15.28-72.36,44.94-90.76c6.94-4.3,9.83-12.81,6.84-20.4c-0.04-0.1-0.08-0.19-0.11-0.29
		c7.29,4.95,16.08,7.84,25.55,7.84c0.65,0,1.29-0.07,1.94-0.1c2.63-0.45,5.29-0.79,7.98-1.02c21.13-4.7,36.75-24.03,35.59-46.83
		c-1.15-22.62-19.34-41.32-41.92-43.05c-18.38-1.41-34.64,8.12-43.06,22.73C563.24,236.11,589.59,90.31,707.97,0H98.4v1133.86
		h1700.79v-260.2C1775.83,887.37,1751.43,899.36,1726.31,909.72z M573.36,158.21c3.62,0,6.56,2.94,6.56,6.56
		c0,3.62-2.94,6.56-6.56,6.56c-3.62,0-6.56-2.94-6.56-6.56C566.8,161.15,569.74,158.21,573.36,158.21z M536.61,176.58
		c18.12,0,32.81,14.69,32.81,32.81c0,18.12-14.69,32.81-32.81,32.81c-18.12,0-32.81-14.69-32.81-32.81
		C503.8,191.27,518.49,176.58,536.61,176.58z M490.24,68.83c4.87,0,8.82,3.95,8.82,8.82s-3.95,8.82-8.82,8.82
		c-4.87,0-8.82-3.95-8.82-8.82S485.37,68.83,490.24,68.83z M419.69,343.68c-9.74,0-17.64-7.9-17.64-17.64
		c0-9.74,7.9-17.64,17.64-17.64c9.74,0,17.64,7.9,17.64,17.64C437.33,335.78,429.43,343.68,419.69,343.68z M489.36,411.52
		c-25.37,0-45.94-20.57-45.94-45.94s20.57-45.94,45.94-45.94c25.37,0,45.94,20.57,45.94,45.94S514.73,411.52,489.36,411.52z
		 M745.3,574.27c-7.97,0-14.44-6.46-14.44-14.44c0-7.97,6.46-14.44,14.44-14.44c7.97,0,14.44,6.46,14.44,14.44
		C759.73,567.8,753.27,574.27,745.3,574.27z M1108.19,936.19c-3,0-5.78-0.91-8.1-2.45c-3.55,21.84-22.44,38.54-45.29,38.54
		c-25.37,0-45.94-20.57-45.94-45.94s20.57-45.94,45.94-45.94c20,0,36.96,12.8,43.27,30.64c2.63-2.52,6.19-4.08,10.12-4.08
		c8.07,0,14.62,6.54,14.62,14.62C1122.8,929.65,1116.26,936.19,1108.19,936.19z M1161.18,1008.67c-5.72,0-10.35-4.64-10.35-10.35
		s4.64-10.35,10.35-10.35s10.35,4.64,10.35,10.35S1166.89,1008.67,1161.18,1008.67z M1607.14,1069.61
		c-30.06,0-54.43-24.37-54.43-54.43c0-30.06,24.37-54.43,54.43-54.43c30.06,0,54.43,24.37,54.43,54.43
		C1661.56,1045.24,1637.19,1069.61,1607.14,1069.61z M1696.33,995.53c-5.01,0-9.07-4.06-9.07-9.07c0-5.01,4.06-9.07,9.07-9.07
		c5.01,0,9.07,4.06,9.07,9.07C1705.4,991.47,1701.34,995.53,1696.33,995.53z"/>
	
		<ellipse transform="matrix(0.7071 -0.7071 0.7071 0.7071 107.045 544.7495)" class="st3" cx="711.09" cy="143.16" rx="51.64" ry="51.64"/>
	<path class="st3" d="M771.61,42.2c0,45.47-36.85,82.34-82.34,82.34c-45.47,0-82.32-36.87-82.32-82.34
		c0-15.42,4.24-29.87,11.61-42.2H760C767.37,12.34,771.61,26.78,771.61,42.2z"/>
	<path class="st3" d="M630.89,164.39c0-8.37-6.78-15.15-15.15-15.15c-8.37,0-15.15,6.78-15.15,15.15c0,8.37,6.78,15.15,15.15,15.15
		C624.11,179.53,630.89,172.75,630.89,164.39z"/>
	<path class="st3" d="M640.72,297.84c4.19,0,7.59-3.4,7.59-7.59s-3.4-7.59-7.59-7.59c-4.19,0-7.59,3.4-7.59,7.59
		S636.52,297.84,640.72,297.84z"/>
	<path class="st3" d="M848.81,498.33c5.03,0,9.11-4.08,9.11-9.11c0-5.03-4.08-9.11-9.11-9.11c-5.03,0-9.11,4.08-9.11,9.11
		C839.69,494.25,843.77,498.33,848.81,498.33z"/>
	<path class="st3" d="M800.2,405.68c4.19,0,7.59-3.4,7.59-7.59c0-4.19-3.4-7.59-7.59-7.59c-4.19,0-7.59,3.4-7.59,7.59
		C792.61,402.28,796.01,405.68,800.2,405.68z"/>
	<circle class="st3" cx="942.98" cy="507.44" r="16.71"/>
	<path class="st3" d="M1042.32,741.77c0,7.62,6.18,13.8,13.8,13.8c7.62,0,13.8-6.18,13.8-13.8c0-7.62-6.18-13.8-13.8-13.8
		C1048.5,727.97,1042.32,734.15,1042.32,741.77z"/>
	<path class="st3" d="M1125.1,801.56c3.81,0,6.9-3.09,6.9-6.9s-3.09-6.9-6.9-6.9c-3.81,0-6.9,3.09-6.9,6.9
		S1121.29,801.56,1125.1,801.56z"/>
	<path class="st3" d="M1422.3,864.76c7.74-1.01,13.2-8.1,12.2-15.84c-1.01-7.74-8.1-13.2-15.84-12.2c-7.74,1.01-13.2,8.1-12.2,15.84
		C1407.47,860.3,1414.56,865.76,1422.3,864.76z"/>
	<path class="st3" d="M1678.88,882.55c15.32-1.99,26.13-16.02,24.14-31.35c-1.99-15.32-16.02-26.13-31.35-24.14
		c-15.32,1.99-26.13,16.02-24.14,31.35C1649.52,873.73,1663.55,884.54,1678.88,882.55z"/>
	<path class="st3" d="M1729.27,868.06c4.62-0.6,7.88-4.83,7.28-9.46c-0.6-4.62-4.83-7.88-9.46-7.28c-4.62,0.6-7.88,4.83-7.28,9.46
		C1720.41,865.4,1724.65,868.66,1729.27,868.06z"/>
	<path class="st3" d="M620.26,390.89c-2.69,0.23-5.35,0.57-7.98,1.02C615.01,391.8,617.68,391.47,620.26,390.89z"/>
	<g class="st7">
		<g class="st8">
			<text transform="matrix(1 0 0 1 275.0989 924.6143)" class="st9 st10 st11">Travel</text>
			<text transform="matrix(1 0 0 1 494.5667 787.1055)" class="st12 st13 st14 st15">HELLO</text>
		</g>
		<rect x="295.07" y="946.2" class="st16" width="513.18" height="50.95"/>
		<text transform="matrix(1 0 0 1 346.7932 982.9707)" class="st17 st13 st18 st19">AROUND THE WORLD</text>
	</g>
	<path class="st3" d="M800.42,100.07c0,5.1-4.14,9.24-9.24,9.24s-9.24-4.14-9.24-9.24c0-5.1,4.14-9.24,9.24-9.24
		S800.42,94.97,800.42,100.07z"/>
</g>
</svg>
